<?xml version="1.0" standalone="no"?>
<!DOCTYPE svg PUBLIC "-//W3C//DTD SVG 20010904//EN"
 "http://www.w3.org/TR/2001/REC-SVG-20010904/DTD/svg10.dtd">
<svg version="1.0" xmlns="http://www.w3.org/2000/svg"
 width="207.000000pt" height="60.000000pt" viewBox="0 0 207.000000 60.000000"
 preserveAspectRatio="xMidYMid meet">
<metadata>
Created by potrace 1.16, written by Peter Selinger 2001-2019
</metadata>
<g transform="translate(0.000000,60.000000) scale(0.100000,-0.100000)"
fill="#000000" stroke="none">
<path d="M1310 290 l0 -110 38 0 c93 0 152 41 152 107 0 77 -45 113 -141 113
l-49 0 0 -110z m137 58 c16 -15 23 -33 23 -59 0 -48 -36 -79 -91 -79 l-39 0 0
80 0 80 42 0 c29 0 49 -7 65 -22z"/>
<path d="M1590 378 c-5 -13 -25 -60 -44 -106 -41 -95 -41 -92 -22 -92 8 0 20
16 27 35 12 33 16 35 59 35 43 0 47 -2 63 -35 19 -40 42 -48 33 -11 -11 45
-85 196 -96 196 -6 0 -15 -10 -20 -22z"/>
<path d="M1911 301 c-22 -55 -41 -105 -41 -110 0 -24 21 -9 34 24 14 33 18 35
61 35 42 0 47 -3 62 -35 9 -19 23 -35 31 -35 7 0 12 4 10 8 -40 100 -95 212
-104 212 -6 0 -30 -45 -53 -99z"/>
</g>
</svg>
